<?xml version="1.0" encoding="UTF-8"?>
<svg version="1.1" xmlns="http://www.w3.org/2000/svg" width="512" height="512">
<path d="M0 0 C0.73689056 -0.00525696 1.47378113 -0.01051392 2.23300171 -0.01593018 C4.66987273 -0.02913875 7.10609103 -0.02038943 9.54296875 -0.01025391 C11.23543422 -0.0122744 12.92789884 -0.01518564 14.62036133 -0.01895142 C18.16789029 -0.02337592 21.71519268 -0.01693976 25.26269531 -0.00292969 C29.81264784 0.01416239 34.36206952 0.00432187 38.91200256 -0.01364708 C42.40698251 -0.02448158 45.90183635 -0.02104014 49.39682007 -0.0132637 C51.07457543 -0.01126077 52.75234219 -0.01372425 54.43008423 -0.02070236 C56.774011 -0.02831152 59.11707507 -0.01672105 61.4609375 0 C62.15609467 -0.00607269 62.85125183 -0.01214539 63.56747437 -0.0184021 C66.39697828 0.01904112 68.29727993 0.08994548 70.66352844 1.71903992 C72.41531183 4.45956639 72.06398059 7.04074854 72.0234375 10.24365234 C72.01919266 10.90528885 72.01494781 11.56692535 72.01057434 12.24861145 C71.99380568 14.35805269 71.95615974 16.46653205 71.91796875 18.57568359 C71.90291943 20.0073104 71.88923145 21.43895221 71.87695312 22.87060547 C71.84390905 26.37677647 71.79214042 29.88238613 71.73046875 33.38818359 C73.02670166 33.37247314 74.32293457 33.3567627 75.65844727 33.34057617 C80.48715961 33.28610136 85.31584499 33.25176966 90.14477539 33.22338867 C92.23108495 33.208342 94.31736308 33.18789977 96.40356445 33.16186523 C99.40974706 33.12530065 102.41550987 33.1084157 105.421875 33.09521484 C106.34819229 33.07973099 107.27450958 33.06424713 108.22889709 33.04829407 C115.3312157 33.04646608 120.09925329 34.10017015 125.60546875 38.88818359 C129.37280736 43.32034667 129.07181431 47.83082098 128.73046875 53.38818359 C128.42008452 55.66544296 128.08169398 57.93902032 127.71875 60.20849609 C127.53481689 61.36881348 127.35088379 62.52913086 127.16137695 63.72460938 C127.01917725 64.60358887 126.87697754 65.48256836 126.73046875 66.38818359 C127.72218519 66.38265284 127.72218519 66.38265284 128.73393631 66.37701035 C144.81650963 66.28869641 160.89899869 66.22249219 176.9817543 66.18093491 C184.75924636 66.16030424 192.53657663 66.13217421 200.31396484 66.08642578 C207.0922655 66.04657321 213.870449 66.02075444 220.64886355 66.01182961 C224.23848139 66.0066121 227.82776401 65.9943392 231.41727448 65.96526337 C235.42319141 65.93307736 239.42852454 65.93222314 243.43457031 65.93408203 C244.62643448 65.91970093 245.81829865 65.90531982 247.04627991 65.89050293 C248.13720444 65.89600159 249.22812897 65.90150024 250.35211182 65.90716553 C251.299715 65.90347836 252.24731819 65.89979118 253.22363663 65.89599228 C256.48656321 66.53663515 257.67981776 67.82616631 259.73046875 70.38818359 C260.22494507 72.74720764 260.22494507 72.74720764 260.21630859 75.38452148 C260.22246185 76.37557388 260.22861511 77.36662628 260.23495483 78.38771057 C260.21339828 79.98315956 260.21339828 79.98315956 260.19140625 81.61083984 C260.19048981 82.70786728 260.18957336 83.80489471 260.18862915 84.93516541 C260.18259044 87.25263805 260.16683651 89.57010279 260.14208984 91.88745117 C260.10557114 95.44072111 260.10107057 98.99294868 260.1015625 102.54638672 C260.09173189 104.7970468 260.08007513 107.0476998 260.06640625 109.29833984 C260.0641806 110.36399673 260.06195496 111.42965363 260.05966187 112.52760315 C260.04690216 113.51550339 260.03414246 114.50340363 260.02099609 115.52124023 C260.0133725 116.39075821 260.0057489 117.26027618 259.99789429 118.15614319 C259.73046875 120.38818359 259.73046875 120.38818359 257.73046875 123.38818359 C254.61522988 124.42659655 252.47334259 124.51144892 249.20661926 124.50843811 C247.48394585 124.51050011 247.48394585 124.51050011 245.72647095 124.51260376 C244.46555634 124.50900848 243.20464172 124.50541321 241.90551758 124.50170898 C240.56519065 124.50142693 239.22486358 124.5015852 237.88453674 124.50215149 C234.24432112 124.50243875 230.60413835 124.49655343 226.96393037 124.48957753 C223.16025601 124.48333225 219.35658092 124.48273926 215.55290222 124.48155212 C208.34938711 124.47844228 201.14588714 124.47023355 193.9423787 124.46020263 C185.74174173 124.44903075 177.54110405 124.44352833 169.34046137 124.4385072 C152.47045506 124.42805066 135.60046351 124.41045791 118.73046875 124.38818359 C118.68073032 125.31946579 118.6309919 126.25074799 118.57974625 127.21025085 C117.95533174 138.45404733 116.56226189 149.56886771 115.11328125 160.73193359 C114.85274764 162.75637461 114.59232283 164.78082963 114.33200073 166.80529785 C113.78899032 171.0179403 113.24209723 175.23005821 112.69287109 179.44189453 C111.99119709 184.82814212 111.30337229 190.21606235 110.61886787 195.60451508 C110.0870917 199.77306263 109.54601675 203.94036474 109.00234604 208.1073761 C108.74466737 210.09399121 108.49032138 212.08104167 108.23944473 214.06852722 C107.88829115 216.84246478 107.52411869 219.61440178 107.15673828 222.38623047 C107.05688629 223.19776581 106.9570343 224.00930115 106.85415649 224.84542847 C105.82130824 232.43915123 103.82787768 238.30700948 97.73046875 243.38818359 C96.88287994 243.64763763 96.03529114 243.90709167 95.16201782 244.17440796 C92.50404225 245.16633901 92.50404225 245.16633901 91.73178101 247.85269165 C91.46888779 249.40867569 91.46888779 249.40867569 91.20068359 250.99609375 C90.99051605 252.17136627 90.78034851 253.34663879 90.56381226 254.55752563 C90.35841827 255.83453339 90.15302429 257.11154114 89.94140625 258.42724609 C89.71129807 259.75081853 89.47897455 261.07400755 89.24453735 262.39682007 C88.63129598 265.88574645 88.04377216 269.37849293 87.46282959 272.8729248 C86.53244317 278.44507345 85.56465718 284.01080172 84.59440994 289.57612228 C84.2610048 291.51104942 83.93998145 293.44809707 83.61923218 295.38516235 C81.98166499 304.97766742 80.30730664 313.69649032 72.73046875 320.38818359 C68.5027778 323.07333866 64.67317635 323.50619768 59.73046875 323.38818359 C59.73415592 324.15902283 59.73784309 324.92986206 59.741642 325.72406006 C59.8300456 344.49518325 59.89620393 363.2662648 59.93771744 382.03755188 C59.95832757 391.11527999 59.98641848 400.192869 60.03222656 409.27050781 C60.07214184 417.18417264 60.09791283 425.0977367 60.10682273 433.0114994 C60.11202956 437.20037945 60.12423499 441.38897127 60.15338898 445.57775879 C60.18063237 449.52418078 60.18889587 453.47019707 60.18289948 457.41670418 C60.18399574 458.86144278 60.19189665 460.30619559 60.20729065 461.75085258 C60.28835573 469.75412412 60.09400317 475.56461965 55.73046875 482.38818359 C55.22870117 483.20585205 54.72693359 484.02352051 54.20996094 484.8659668 C53.73719727 485.55005615 53.26443359 486.23414551 52.77734375 486.93896484 C52.24447754 487.71522217 51.71161133 488.49147949 51.16259766 489.29125977 C50.60749512 490.08636963 50.05239258 490.88147949 49.48046875 491.70068359 C48.90345215 492.52866455 48.32643555 493.35664551 47.73193359 494.2097168 C46.58633234 495.85144584 45.43908349 497.49202665 44.29003906 499.13134766 C42.93734971 501.08880859 41.63146415 503.06495043 40.34765625 505.06787109 C35.65167498 512.15788204 35.65167498 512.15788204 30.98046875 513.32568359 C24.95089068 511.58638223 22.13920932 506.32867457 18.78125 501.35693359 C18.32316452 500.68400269 17.86507904 500.01107178 17.39311218 499.31774902 C16.43034437 497.90051405 15.46983869 496.48174001 14.51147461 495.06152344 C13.04449249 492.89043868 11.56667548 490.72702222 10.08789062 488.56396484 C9.15167924 487.18290466 8.21611012 485.80140882 7.28125 484.41943359 C6.83961014 483.77453979 6.39797028 483.129646 5.94294739 482.46520996 C2.33176323 477.08161483 1.60484842 473.63009807 1.61021423 467.21258545 C1.60815224 465.3111528 1.60815224 465.3111528 1.60604858 463.37130737 C1.6095875 461.96905494 1.61322231 460.56680274 1.61694336 459.16455078 C1.61722547 457.68614707 1.61706703 456.20774323 1.61650085 454.7293396 C1.61621381 450.71729546 1.62209557 446.70528118 1.62907481 442.69324398 C1.63532377 438.49986357 1.63591337 434.30648249 1.63710022 430.11309814 C1.64020898 422.17296488 1.64841625 414.23284538 1.65844971 406.29271817 C1.66962496 397.25289603 1.67512486 388.21307324 1.68014514 379.17324591 C1.69059922 360.57821733 1.70818988 341.98320157 1.73046875 323.38818359 C1.11776123 323.33339844 0.50505371 323.27861328 -0.1262207 323.22216797 C-0.932771 323.14289063 -1.73932129 323.06361328 -2.5703125 322.98193359 C-3.36864502 322.90652344 -4.16697754 322.83111328 -4.98950195 322.75341797 C-10.04047907 321.94430974 -13.15269669 318.88291972 -16.1875 314.99365234 C-20.68093423 308.09823303 -21.54457955 299.98106627 -22.91162109 292.0112915 C-23.39929682 289.1729473 -23.91492857 286.34090061 -24.4375 283.50878906 C-25.87656008 275.64856466 -27.24397357 267.78546441 -28.38671875 259.87646484 C-28.62044189 258.34445435 -28.62044189 258.34445435 -28.85888672 256.78149414 C-29.1227932 255.00240044 -29.35623224 253.21837447 -29.55126953 251.43041992 C-29.85654574 248.82591962 -29.85654574 248.82591962 -31.26953125 245.38818359 C-33.19872702 244.07679996 -34.98631962 243.27634447 -37.19921875 242.54589844 C-40.72631471 240.57355303 -42.71694425 237.30959126 -43.82927895 233.44187737 C-44.24626495 231.22464282 -44.56571662 229.01389313 -44.85083008 226.77587891 C-45.02793754 225.53089567 -45.02793754 225.53089567 -45.20862293 224.26076126 C-45.57755408 221.63841433 -45.924586 219.01378196 -46.26953125 216.38818359 C-46.49506947 214.74591908 -46.72156396 213.10378559 -46.94906616 211.46179199 C-47.64706699 206.37271125 -48.30989308 201.27933256 -48.96875 196.18505859 C-49.2109856 194.3232496 -49.45332274 192.46145381 -49.695755 190.59967041 C-50.19750797 186.74115952 -50.69721457 182.88239034 -51.19555664 179.0234375 C-51.83288669 174.09049058 -52.47677578 169.15842358 -53.12230206 164.22654343 C-53.62209854 160.40075142 -54.11780407 156.57443757 -54.61234474 152.74796295 C-54.8481559 150.92819175 -55.0853765 149.10860259 -55.32407188 147.28920746 C-55.6561008 144.75469566 -55.9824347 142.21951129 -56.30737305 139.68408203 C-56.40551804 138.94428604 -56.50366302 138.20449005 -56.6047821 137.442276 C-57.1615295 133.04127045 -57.35874761 128.81155846 -57.26953125 124.38818359 C-57.96675167 124.39002718 -58.66397209 124.39187077 -59.3823204 124.39377022 C-76.34116247 124.43792401 -93.29998996 124.47102786 -110.2588768 124.49180794 C-118.46004042 124.50212392 -126.66116568 124.51619041 -134.86230469 124.5390625 C-142.00976851 124.55898652 -149.15720455 124.57189769 -156.30469537 124.57636058 C-160.08982038 124.57896964 -163.87486594 124.58510874 -167.65996552 124.59964371 C-171.2221747 124.61321202 -174.78427164 124.61740777 -178.34650421 124.61439896 C-180.27805512 124.61521206 -182.20959379 124.62597765 -184.14111328 124.63702393 C-185.86584869 124.63289993 -185.86584869 124.63289993 -187.62542725 124.62869263 C-188.62465084 124.63053621 -189.62387444 124.6323798 -190.65337753 124.63427925 C-193.37000404 124.37873235 -194.99141268 123.86714178 -197.26953125 122.38818359 C-198.48587128 119.95550353 -198.41582661 118.35394036 -198.4465332 115.63476562 C-198.46578606 114.15280197 -198.46578606 114.15280197 -198.48542786 112.64089966 C-198.49281479 111.57008148 -198.50020172 110.49926331 -198.5078125 109.39599609 C-198.51588425 108.29851044 -198.52395599 107.20102478 -198.53227234 106.07028198 C-198.54611915 103.74511295 -198.55683862 101.41992354 -198.56469727 99.09472656 C-198.58192758 95.5346035 -198.62581153 91.97540465 -198.66992188 88.41552734 C-198.68004697 86.15902377 -198.68856364 83.90251229 -198.6953125 81.64599609 C-198.71282059 80.57922638 -198.73032867 79.51245667 -198.74836731 78.4133606 C-198.74544174 77.41908051 -198.74251617 76.42480042 -198.73950195 75.40039062 C-198.74536819 74.52706085 -198.75123444 73.65373108 -198.75727844 72.75393677 C-198.0925523 69.52977061 -196.79946074 68.45346517 -194.26953125 66.38818359 C-191.76269913 65.89599228 -191.76269913 65.89599228 -188.89117432 65.90716553 C-187.80024979 65.90166687 -186.70932526 65.89616821 -185.58534241 65.89050293 C-184.39347824 65.90488403 -183.20161407 65.91926514 -181.97363281 65.93408203 C-180.7148381 65.93349792 -179.4560434 65.93291382 -178.15910339 65.93231201 C-174.71087437 65.9311646 -171.26320221 65.95467747 -167.81510258 65.98260784 C-164.21032092 66.00761737 -160.60552642 66.00996313 -157.00067139 66.01470947 C-150.17602461 66.02714063 -143.35163422 66.05996392 -136.52710032 66.10010743 C-128.75693772 66.14482096 -120.98676286 66.16681109 -113.21650362 66.18688917 C-97.23403103 66.2286966 -81.2518142 66.29905112 -65.26953125 66.38818359 C-65.41028076 65.50775391 -65.55103027 64.62732422 -65.69604492 63.72021484 C-65.8788501 62.55876953 -66.06165527 61.39732422 -66.25 60.20068359 C-66.43199951 59.05212891 -66.61399902 57.90357422 -66.80151367 56.72021484 C-67.5432645 51.43935135 -68.19342655 46.64659432 -66.14453125 41.63818359 C-62.84871021 37.68319834 -59.50590418 34.30661003 -54.26953125 33.38818359 C-52.77366683 33.30457195 -51.27456034 33.27035305 -49.77636719 33.2746582 C-48.45545074 33.2747715 -48.45545074 33.2747715 -47.10784912 33.27488708 C-46.16604797 33.28004837 -45.22424683 33.28520966 -44.25390625 33.29052734 C-42.79745697 33.29264977 -42.79745697 33.29264977 -41.31158447 33.29481506 C-38.2142019 33.30040696 -35.11689193 33.312958 -32.01953125 33.32568359 C-29.91796979 33.33069964 -27.81640721 33.33526236 -25.71484375 33.33935547 C-20.56637833 33.35037375 -15.41796709 33.36763285 -10.26953125 33.38818359 C-10.29309692 32.04856567 -10.29309692 32.04856567 -10.31713867 30.68188477 C-10.36828564 27.36639603 -10.40588937 24.05132684 -10.43432617 20.7355957 C-10.44940714 19.30095808 -10.46987505 17.86636651 -10.49584961 16.43188477 C-10.53226562 14.36902501 -10.54926368 12.30677502 -10.5625 10.24365234 C-10.58606567 8.38196411 -10.58606567 8.38196411 -10.61010742 6.48266602 C-10.26953125 3.38818359 -10.26953125 3.38818359 -9.20259094 1.71903992 C-6.30075445 -0.27879153 -3.40010598 -0.02970235 0 0 Z " fill="#FDC144" transform="translate(225.26953125,-0.38818359375)"/>
<path d="M0 0 C54.78 0 109.56 0 166 0 C165.33334967 8.66645426 164.56881688 17.22580985 163.4765625 25.8359375 C163.32972015 26.99952789 163.18287781 28.16311829 163.03158569 29.36196899 C162.72246361 31.79737658 162.41145987 34.23254602 162.09863281 36.66748047 C161.62369293 40.38523152 161.16336197 44.10462271 160.703125 47.82421875 C160.39933629 50.20323994 160.09467925 52.58215045 159.7890625 54.9609375 C159.65456696 56.06521088 159.52007141 57.16948425 159.38150024 58.30722046 C158.2647415 66.79279326 156.86916633 73.27569472 150 79 C149.15241119 79.25945404 148.30482239 79.51890808 147.43154907 79.78622437 C144.7735735 80.77815542 144.7735735 80.77815542 144.00131226 83.46450806 C143.73841904 85.0204921 143.73841904 85.0204921 143.47021484 86.60791016 C143.2600473 87.78318268 143.04987976 88.9584552 142.83334351 90.16934204 C142.62794952 91.44634979 142.42255554 92.72335754 142.2109375 94.0390625 C141.98082932 95.36263493 141.7485058 96.68582396 141.5140686 98.00863647 C140.90082723 101.49756286 140.31330341 104.99030933 139.73236084 108.48474121 C138.80197442 114.05688985 137.83418843 119.62261812 136.86394119 125.18793869 C136.53053605 127.12286583 136.2095127 129.05991347 135.88876343 130.99697876 C134.25119624 140.58948383 132.57683789 149.30830672 125 156 C120.77230905 158.68515506 116.9427076 159.11801409 112 159 C112.00368717 159.77083923 112.00737434 160.54167847 112.01117325 161.33587646 C112.09957685 180.10699966 112.16573518 198.87808121 112.20724869 217.64936829 C112.22785882 226.7270964 112.25594973 235.8046854 112.30175781 244.88232422 C112.34167309 252.79598905 112.36744408 260.70955311 112.37635398 268.62331581 C112.38156081 272.81219586 112.39376624 277.00078768 112.42292023 281.1895752 C112.45016362 285.13599719 112.45842712 289.08201348 112.45243073 293.02852058 C112.45352699 294.47325918 112.4614279 295.91801199 112.4768219 297.36266899 C112.55788698 305.36594053 112.36353442 311.17643606 108 318 C107.49823242 318.81766846 106.99646484 319.63533691 106.47949219 320.4777832 C106.00672852 321.16187256 105.53396484 321.84596191 105.046875 322.55078125 C104.51400879 323.32703857 103.98114258 324.1032959 103.43212891 324.90307617 C102.87702637 325.69818604 102.32192383 326.4932959 101.75 327.3125 C101.1729834 328.14048096 100.5959668 328.96846191 100.00146484 329.8215332 C98.85586359 331.46326224 97.70861474 333.10384305 96.55957031 334.74316406 C95.20688096 336.70062499 93.9009954 338.67676684 92.6171875 340.6796875 C87.92120623 347.76969844 87.92120623 347.76969844 83.25 348.9375 C77.22042193 347.19819863 74.40874057 341.94049098 71.05078125 336.96875 C70.59269577 336.29581909 70.13461029 335.62288818 69.66264343 334.92956543 C68.69987562 333.51233046 67.73936994 332.09355642 66.78100586 330.67333984 C65.31402374 328.50225509 63.83620673 326.33883863 62.35742188 324.17578125 C61.42121049 322.79472107 60.48564137 321.41322523 59.55078125 320.03125 C59.10914139 319.3863562 58.66750153 318.7414624 58.21247864 318.07702637 C54.60129448 312.69343123 53.87437967 309.24191448 53.87974548 302.82440186 C53.87837082 301.55678009 53.87699615 300.28915833 53.87557983 298.98312378 C53.87911875 297.58087135 53.88275356 296.17861915 53.88647461 294.77636719 C53.88675672 293.29796348 53.88659828 291.81955963 53.8860321 290.34115601 C53.88574506 286.32911186 53.89162682 282.31709759 53.89860606 278.30506039 C53.90485502 274.11167998 53.90544462 269.9182989 53.90663147 265.72491455 C53.90974023 257.78478129 53.9179475 249.84466178 53.92798096 241.90453458 C53.93915621 232.86471244 53.94465611 223.82488964 53.94967639 214.78506231 C53.96013047 196.19003374 53.97772113 177.59501798 54 159 C53.08093872 158.91782227 53.08093872 158.91782227 52.14331055 158.83398438 C51.33676025 158.75470703 50.53020996 158.67542969 49.69921875 158.59375 C48.50171997 158.48063477 48.50171997 158.48063477 47.2800293 158.36523438 C42.22905218 157.55612614 39.11683456 154.49473612 36.08203125 150.60546875 C31.58859702 143.71004944 30.7249517 135.59288268 29.35791016 127.62310791 C28.87023443 124.7847637 28.35460268 121.95271702 27.83203125 119.12060547 C26.39297117 111.26038107 25.02555768 103.39728082 23.8828125 95.48828125 C23.72699707 94.46694092 23.57118164 93.44560059 23.41064453 92.39331055 C23.14673805 90.61421685 22.91329901 88.83019088 22.71826172 87.04223633 C22.41298551 84.43773603 22.41298551 84.43773603 21 81 C19.07080423 79.68861637 17.28321163 78.88816087 15.0703125 78.15771484 C11.88216021 76.3749061 10.72288332 74.19189694 9 71 C8.31538217 68.15460742 7.81700576 65.53073415 7.44921875 62.6484375 C7.33253342 61.82951019 7.21584808 61.01058289 7.09562683 60.1668396 C6.71352902 57.4465874 6.35562798 54.72383117 6 52 C5.73559404 50.04323947 5.47077358 48.08653491 5.20556641 46.12988281 C4.51913722 41.00946703 3.85912429 35.8860358 3.21020508 30.76074219 C2.8067278 27.57948852 2.39675255 24.39911407 1.98632812 21.21875 C1.7261784 19.17973647 1.46639859 17.1406757 1.20703125 15.1015625 C1.08519974 14.15890533 0.96336823 13.21624817 0.83784485 12.24502563 C0.72740341 11.36575409 0.61696198 10.48648254 0.50317383 9.58056641 C0.40563309 8.8140274 0.30809235 8.0474884 0.20759583 7.25772095 C-0.01400775 4.84765788 0 2.42022977 0 0 Z " fill="#F9BF45" transform="translate(173,164)"/>
<path d="M0 0 C19.14 0 38.28 0 58 0 C58.09035385 19.54979397 58.16401313 39.09941843 58.20724869 58.64936829 C58.22785882 67.7270964 58.25594973 76.8046854 58.30175781 85.88232422 C58.34167309 93.79598905 58.36744408 101.70955311 58.37635398 109.62331581 C58.38156081 113.81219586 58.39376624 118.00078768 58.42292023 122.1895752 C58.45016362 126.13599719 58.45842712 130.08201348 58.45243073 134.02852058 C58.45352699 135.47325918 58.4614279 136.91801199 58.4768219 138.36266899 C58.55788698 146.36594053 58.36353442 152.17643606 54 159 C53.49823242 159.81766846 52.99646484 160.63533691 52.47949219 161.4777832 C52.00672852 162.16187256 51.53396484 162.84596191 51.046875 163.55078125 C50.51400879 164.32703857 49.98114258 165.1032959 49.43212891 165.90307617 C48.5994751 167.09574097 48.5994751 167.09574097 47.75 168.3125 C47.1729834 169.14048096 46.5959668 169.96846191 46.00146484 170.8215332 C44.85586359 172.46326224 43.70861474 174.10384305 42.55957031 175.74316406 C41.20688096 177.70062499 39.9009954 179.67676684 38.6171875 181.6796875 C33.92120623 188.76969844 33.92120623 188.76969844 29.25 189.9375 C23.22042193 188.19819863 20.40874057 182.94049098 17.05078125 177.96875 C16.59269577 177.29581909 16.13461029 176.62288818 15.66264343 175.92956543 C14.69987562 174.51233046 13.73936994 173.09355642 12.78100586 171.67333984 C11.31402374 169.50225509 9.83620673 167.33883863 8.35742188 165.17578125 C7.42121049 163.79472107 6.48564137 162.41322523 5.55078125 161.03125 C5.10914139 160.3863562 4.66750153 159.7414624 4.21247864 159.07702637 C0.60129448 153.69343123 -0.12562033 150.24191448 -0.12025452 143.82440186 C-0.12162918 142.55678009 -0.12300385 141.28915833 -0.12442017 139.98312378 C-0.12088125 138.58087135 -0.11724644 137.17861915 -0.11352539 135.77636719 C-0.11324328 134.29796348 -0.11340172 132.81955963 -0.1139679 131.34115601 C-0.11425494 127.32911186 -0.10837318 123.31709759 -0.10139394 119.30506039 C-0.09514498 115.11167998 -0.09455538 110.9182989 -0.09336853 106.72491455 C-0.09025977 98.78478129 -0.0820525 90.84466178 -0.07201904 82.90453458 C-0.06084379 73.86471244 -0.05534389 64.82488964 -0.05032361 55.78506231 C-0.03986952 37.19003215 -0.02152968 18.59502086 0 0 Z " fill="#DAD6DA" transform="translate(227,323)"/>
<path d="M0 0 C0.73689056 -0.00525696 1.47378113 -0.01051392 2.23300171 -0.01593018 C4.66987273 -0.02913875 7.10609103 -0.02038943 9.54296875 -0.01025391 C11.23543422 -0.0122744 12.92789884 -0.01518564 14.62036133 -0.01895142 C18.16789029 -0.02337592 21.71519268 -0.01693976 25.26269531 -0.00292969 C29.81264784 0.01416239 34.36206952 0.00432187 38.91200256 -0.01364708 C42.40698251 -0.02448158 45.90183635 -0.02104014 49.39682007 -0.0132637 C51.07457543 -0.01126077 52.75234219 -0.01372425 54.43008423 -0.02070236 C56.774011 -0.02831152 59.11707507 -0.01672105 61.4609375 0 C62.15609467 -0.00607269 62.85125183 -0.01214539 63.56747437 -0.0184021 C68.27356744 0.04387429 68.27356744 0.04387429 70.40743256 1.65190125 C72.03565493 3.78869371 72.1113635 4.88371163 72.12487793 7.5496521 C72.13622772 8.39637985 72.14757751 9.2431076 72.15927124 10.11549377 C72.15634064 11.04127731 72.15341003 11.96706085 72.15039062 12.92089844 C72.15886017 13.89841568 72.16732971 14.87593292 72.17605591 15.8830719 C72.1994988 19.1218865 72.20044624 22.36022799 72.19921875 25.59912109 C72.20631648 27.84730216 72.2140149 30.09548141 72.22229004 32.34365845 C72.23575204 37.05972323 72.23729612 41.77562057 72.23144531 46.49169922 C72.22555112 52.53700881 72.25612195 58.58151478 72.29656219 64.62666893 C72.32240677 69.27123345 72.32531946 73.91560374 72.32167053 78.56023026 C72.32336516 80.78898766 72.33304045 83.01775371 72.35081482 85.24644089 C72.37293715 88.3637344 72.36333562 91.47939201 72.34570312 94.59667969 C72.35896637 95.51841476 72.37222961 96.44014984 72.38589478 97.38981628 C72.32917208 101.70326418 72.11870311 103.81894211 69.63562012 107.4597168 C66.03534539 109.84961302 63.93827448 110.02148625 59.6328125 110.03515625 C58.93785675 110.04391785 58.242901 110.05267944 57.52688599 110.06170654 C55.23993663 110.08363304 52.95493619 110.06917459 50.66796875 110.05224609 C49.07283153 110.05561624 47.47769681 110.06047051 45.88256836 110.06674194 C42.54353323 110.07410403 39.20516803 110.06343011 35.86621094 110.04003906 C31.59192075 110.01155058 27.31920028 110.02795827 23.04496765 110.05790138 C19.75228099 110.07599299 16.45996484 110.07020804 13.16726685 110.05726242 C11.59164238 110.0539335 10.01598398 110.05799746 8.44039917 110.06966019 C6.23540521 110.08240105 4.03293175 110.06295317 1.828125 110.03515625 C-0.05120728 110.0291893 -0.05120728 110.0291893 -1.96850586 110.02310181 C-6.35618214 109.17917749 -7.75172227 108.07987461 -10.26953125 104.38818359 C-10.97038414 101.11627171 -10.93276694 97.93255248 -10.88476562 94.59667969 C-10.89031464 93.61565781 -10.89586365 92.63463593 -10.90158081 91.62388611 C-10.9133779 88.38596538 -10.88910374 85.14944361 -10.86328125 81.91162109 C-10.86157039 79.66150985 -10.86163558 77.4113966 -10.86340332 75.1612854 C-10.86175013 70.44863791 -10.8430489 65.73646615 -10.81152344 61.02392578 C-10.77180062 54.97638218 -10.76748351 48.92946048 -10.77498627 42.88181114 C-10.7780518 38.23731769 -10.76595101 33.59296469 -10.74885559 28.9485054 C-10.74181406 26.71812445 -10.73870245 24.48772757 -10.73954773 22.25733566 C-10.73775501 19.14489559 -10.71641924 16.0332087 -10.68945312 12.92089844 C-10.69238373 11.9951149 -10.69531433 11.06933136 -10.69833374 10.11549377 C-10.68698395 9.26876602 -10.67563416 8.42203827 -10.66394043 7.5496521 C-10.66021172 6.81410284 -10.656483 6.07855358 -10.6526413 5.32071495 C-9.526628 -0.35926138 -4.82295125 -0.04213191 0 0 Z " fill="#FD9E37" transform="translate(225.26953125,-0.38818359375)"/>
<path d="M0 0 C40.26 0 80.52 0 122 0 C121.32896664 8.05240032 120.50068496 15.71333535 119.0390625 23.609375 C118.84782806 24.66102844 118.65659363 25.71268188 118.45956421 26.79620361 C118.05733023 28.99829506 117.65215802 31.19985171 117.24414062 33.40087891 C116.62429389 36.75381955 116.0186699 40.1091257 115.4140625 43.46484375 C115.0190831 45.61734437 114.62327823 47.76969372 114.2265625 49.921875 C114.0483194 50.91475525 113.87007629 51.9076355 113.68643188 52.93060303 C110.97987794 67.35188249 110.97987794 67.35188249 106.25 72.8125 C105.80140625 73.35519531 105.3528125 73.89789063 104.890625 74.45703125 C100.02998158 78.42387867 95.04077718 79.37652196 88.90649414 79.40405273 C88.23557236 79.41091599 87.56465057 79.41777924 86.87339783 79.42485046 C84.67709601 79.44300561 82.48151628 79.43929753 80.28515625 79.43359375 C78.74490632 79.43816103 77.20465843 79.44346822 75.66441345 79.44947815 C72.44424128 79.45838709 69.22431741 79.45601164 66.00415039 79.44604492 C61.89409806 79.43455837 57.78490534 79.45477241 53.67496586 79.48396206 C50.49631887 79.50237994 47.31787577 79.50202056 44.13918877 79.49632454 C42.62464632 79.496172 41.11008945 79.50215994 39.59559822 79.51461601 C30.49950421 79.57889716 23.16491182 79.55608135 16.01171875 73.24609375 C9.80289649 64.76619786 8.54572858 54.34447716 6.73828125 44.19921875 C6.44500191 42.57920708 6.44500191 42.57920708 6.14579773 40.9264679 C5.73758572 38.6639003 5.33183698 36.40088699 4.9284668 34.13745117 C4.31082324 30.67810867 3.68227254 27.22086725 3.05273438 23.76367188 C2.65559636 21.55480492 2.25908972 19.34582433 1.86328125 17.13671875 C1.6758284 16.1085051 1.48837555 15.08029144 1.29524231 14.0209198 C1.12473862 13.05584 0.95423492 12.09076019 0.77856445 11.09643555 C0.62772903 10.25469284 0.47689362 9.41295013 0.32148743 8.54570007 C0 6 0 6 0 0 Z " fill="#61525F" transform="translate(195,244)"/>
<path d="M0 0 C16.88077276 -0.09341512 33.76146494 -0.16396524 50.64243698 -0.20724869 C58.48046251 -0.22787957 66.31832751 -0.25601003 74.15625 -0.30175781 C80.98728836 -0.34160971 87.81821047 -0.36742899 94.64936185 -0.37635398 C98.26692421 -0.3815716 101.88415397 -0.39384524 105.5016098 -0.42292023 C109.53865859 -0.45510487 113.57512806 -0.45596049 117.61230469 -0.45410156 C119.41412704 -0.47567322 119.41412704 -0.47567322 121.25234985 -0.49768066 C122.35168854 -0.49218201 123.45102722 -0.48668335 124.5836792 -0.48101807 C126.0161455 -0.48654882 126.0161455 -0.48654882 127.47755051 -0.49219131 C130.75214881 0.14676255 131.94409036 1.42781154 134 4 C134.49447632 6.35902405 134.49447632 6.35902405 134.48583984 8.99633789 C134.49506973 10.48291649 134.49506973 10.48291649 134.50448608 11.99952698 C134.48292953 13.59497597 134.48292953 13.59497597 134.4609375 15.22265625 C134.46002106 16.31968369 134.45910461 17.41671112 134.4581604 18.54698181 C134.45212169 20.86445446 134.43636776 23.1819192 134.41162109 25.49926758 C134.37510239 29.05253752 134.37060182 32.60476509 134.37109375 36.15820312 C134.36126314 38.40886321 134.34960638 40.65951621 134.3359375 42.91015625 C134.33371185 43.97581314 134.33148621 45.04147003 134.32919312 46.13941956 C134.31643341 47.12731979 134.30367371 48.11522003 134.29052734 49.13305664 C134.28290375 50.00257462 134.27528015 50.87209259 134.26742554 51.76795959 C134 54 134 54 132 57 C128.88476113 58.03841296 126.74287384 58.12326532 123.47615051 58.12025452 C121.7534771 58.12231651 121.7534771 58.12231651 119.9960022 58.12442017 C118.73508759 58.12082489 117.47417297 58.11722961 116.17504883 58.11352539 C114.8347219 58.11324334 113.49439483 58.11340161 112.15406799 58.1139679 C108.51385237 58.11425516 104.8736696 58.10836983 101.23346162 58.10139394 C97.42978726 58.09514866 93.62611217 58.09455567 89.82243347 58.09336853 C82.61891836 58.09025869 75.41541839 58.08204996 68.21190995 58.07201904 C60.01127298 58.06084715 51.8106353 58.05534474 43.60999262 58.05032361 C26.73998631 58.03986707 9.86999476 58.02227432 -7 58 C-6.84628456 55.76588743 -6.6908899 53.53189035 -6.53479004 51.29794312 C-6.44843544 50.05387381 -6.36208084 48.8098045 -6.27310944 47.52803612 C-5.94861444 43.33619971 -5.45276548 39.19737117 -4.84375 35.0390625 C-4.7365564 34.27878754 -4.62936279 33.51851257 -4.5189209 32.73519897 C-4.18376168 30.36446907 -3.84214835 27.99473017 -3.5 25.625 C-3.15934811 23.23365283 -2.82005035 20.84211693 -2.4810791 18.45053101 C-2.27200352 16.97885026 -2.06173136 15.50733875 -1.84997559 14.03604126 C-1.35873783 10.610818 -0.89115396 7.18459264 -0.46520996 3.75057983 C-0.31169067 2.51288849 -0.15817139 1.27519714 0 0 Z " fill="#71636E" transform="translate(351,66)"/>
<path d="M0 0 C1.09933868 -0.00549866 2.19867737 -0.01099731 3.33132935 -0.0166626 C4.53254425 -0.00228149 5.73375916 0.01209961 6.97137451 0.0269165 C8.23992279 0.0263324 9.50847107 0.02574829 10.81546021 0.02514648 C14.29054609 0.02399903 17.76507946 0.04751265 21.24003696 0.07544231 C24.87284607 0.10045108 28.5056679 0.10279754 32.1385498 0.10754395 C39.01631958 0.11997532 45.89383496 0.15279892 52.77149272 0.1929419 C60.60211395 0.23765473 68.43274734 0.25964539 76.26346445 0.27972364 C92.37035161 0.32153158 108.47698294 0.39188654 124.5836792 0.48101807 C124.75169037 1.79488747 124.75169037 1.79488747 124.9230957 3.13529968 C125.34677219 6.4446483 125.77136221 9.75387724 126.1965332 13.06303406 C126.37893602 14.48411073 126.56099455 15.90523165 126.74267578 17.32640076 C128.15346972 28.35936433 129.67939635 39.37047975 131.37176514 50.36407471 C131.64314047 53.07501429 131.59625515 55.75810801 131.5836792 58.48101807 C113.92057481 58.52772274 96.25748643 58.56299938 78.59433365 58.58464241 C70.39317003 58.59495839 62.19204477 58.60902488 53.99090576 58.63189697 C46.84344194 58.65182099 39.6960059 58.66473216 32.54851508 58.66919506 C28.76339006 58.67180411 24.9783445 58.67794321 21.19324493 58.69247818 C17.63103575 58.70604649 14.06893881 58.71024224 10.50670624 58.70723343 C8.57515533 58.70804654 6.64361666 58.71881213 4.71209717 58.7298584 C2.98736176 58.72573441 2.98736176 58.72573441 1.2277832 58.7215271 C0.22855961 58.72337069 -0.77066399 58.72521427 -1.80016708 58.72711372 C-4.51679359 58.47156682 -6.13820223 57.95997625 -8.4163208 56.48101807 C-9.63266084 54.048338 -9.56261616 52.44677483 -9.59332275 49.7276001 C-9.60615799 48.73962433 -9.61899323 47.75164856 -9.63221741 46.73373413 C-9.63960434 45.66291595 -9.64699127 44.59209778 -9.65460205 43.48883057 C-9.6626738 42.39134491 -9.67074554 41.29385925 -9.67906189 40.16311646 C-9.6929087 37.83794742 -9.70362817 35.51275802 -9.71148682 33.18756104 C-9.72871713 29.62743797 -9.77260108 26.06823912 -9.81671143 22.50836182 C-9.82683652 20.25185824 -9.83535319 17.99534676 -9.84210205 15.73883057 C-9.85961014 14.67206085 -9.87711823 13.60529114 -9.89515686 12.50619507 C-9.89223129 11.51191498 -9.88930573 10.51763489 -9.8862915 9.4932251 C-9.89215775 8.61989532 -9.89802399 7.74656555 -9.90406799 6.84677124 C-8.7878107 1.43251305 -5.10746786 -0.01971995 0 0 Z " fill="#71636E" transform="translate(36.41632080078125,65.51898193359375)"/>
<path d="M0 0 C50.82 0 101.64 0 154 0 C152.24232173 28.12285239 152.24232173 28.12285239 146 34 C139.28358561 37.25949799 133.31190804 37.43403167 125.92773438 37.40405273 C124.1457238 37.41434761 124.1457238 37.41434761 122.32771301 37.42485046 C119.090035 37.4399502 115.85272068 37.44163084 112.61502266 37.43590808 C109.90386261 37.43280384 107.19275394 37.43892219 104.48160124 37.44494683 C98.08257944 37.45896049 91.68369124 37.45745663 85.28466797 37.44604492 C78.69981904 37.4345608 72.11537726 37.44865114 65.53058195 37.4754414 C59.8598252 37.49764253 54.18919586 37.50422607 48.51839876 37.49836498 C45.13897216 37.49500541 41.7598066 37.49734353 38.38041687 37.51461601 C34.61072613 37.52951839 30.84192871 37.51885319 27.07226562 37.50170898 C25.40905022 37.51621094 25.40905022 37.51621094 23.7122345 37.53100586 C17.32467056 37.47027734 12.28682787 36.78960327 7 33 C2.81600374 28.33744207 2.05214971 23.62696724 1.25 17.625 C1.12496094 16.81289062 0.99992188 16.00078125 0.87109375 15.1640625 C0.11221552 9.96032609 0 5.37753526 0 0 Z " fill="#FDC243" transform="translate(179,208)"/>
<path d="M0 0 C56.76 0 113.52 0 172 0 C170 17 170 17 169 19 C114.22 19 59.44 19 3 19 C1 9 1 9 0 0 Z " fill="#FDC144" transform="translate(170,145)"/>
<path d="M0 0 C0 16.83 0 33.66 0 51 C-4.71804213 53.35902107 -8.76042345 54.898414 -13.78515625 56.12109375 C-14.89146645 56.40014305 -14.89146645 56.40014305 -16.02012634 56.68482971 C-18.36599256 57.27563943 -20.71401123 57.85721114 -23.0625 58.4375 C-26.13785354 59.20255655 -29.21197175 59.97237164 -32.28515625 60.74609375 C-33.0301236 60.93279633 -33.77509094 61.1194989 -34.54263306 61.31185913 C-40.23694918 62.757889 -45.81691321 64.4406338 -51.39624023 66.28540039 C-54 67 -54 67 -58 67 C-58.20638953 31.52322798 -58.20638953 31.52322798 -57 15 C-50.62678575 12.43858928 -44.23692368 10.71896371 -37.5625 9.125 C-29.39698018 7.13510444 -21.3027386 5.0210861 -13.26586914 2.56103516 C-8.80629658 1.20021602 -4.67839698 0 0 0 Z " fill="#DAD6DA" transform="translate(285,378)"/>
<path d="M0 0 C57.42 0 114.84 0 174 0 C173.67 3.96 173.34 7.92 173 12 C116.24 12 59.48 12 1 12 C0.67 8.04 0.34 4.08 0 0 Z " fill="#80737C" transform="translate(169,133)"/>
<path d="M0 0 C54.78 0 109.56 0 166 0 C165 10 165 10 164 12 C110.54 12 57.08 12 2 12 C0 5 0 5 0 0 Z " fill="#83757A" transform="translate(173,164)"/>
<path d="M0 0 C51.48 0 102.96 0 156 0 C156 3.96 156 7.92 156 12 C104.52 12 53.04 12 0 12 C0 8.04 0 4.08 0 0 Z " fill="#81747B" transform="translate(178,196)"/>
<path d="M0 0 C0 6.27 0 12.54 0 19 C-4.71804213 21.35902107 -8.76042345 22.898414 -13.78515625 24.12109375 C-14.52269638 24.30712662 -15.26023651 24.49315948 -16.02012634 24.68482971 C-18.36599256 25.27563943 -20.71401123 25.85721114 -23.0625 26.4375 C-26.13785347 27.20255654 -29.21199139 27.97229363 -32.28515625 28.74609375 C-33.0293985 28.93279633 -33.77364075 29.1194989 -34.54043579 29.31185913 C-40.26392864 30.76642014 -45.87955337 32.45038135 -51.49389648 34.28540039 C-54 35 -54 35 -57 35 C-57 28.4 -57 21.8 -57 15 C-43.7501352 11.02504056 -30.42829085 7.37673978 -17.05957031 3.82324219 C-14.99339786 3.26729473 -12.93026581 2.6999404 -10.87011719 2.12207031 C-9.39913574 1.70973145 -9.39913574 1.70973145 -7.8984375 1.2890625 C-7.02622559 1.0410791 -6.15401367 0.7930957 -5.25537109 0.53759766 C-3 0 -3 0 0 0 Z " fill="#DAD7DA" transform="translate(285,410)"/>
<path d="M0 0 C18.81 0 37.62 0 57 0 C57 3.3 57 6.6 57 10 C43.37436273 13.82010761 29.71669617 17.5162963 16.04736328 21.17675781 C13.97599253 21.73633658 11.90670783 22.30368288 9.83935547 22.87792969 C8.8495166 23.15282227 7.85967773 23.42771484 6.83984375 23.7109375 C5.95546631 23.9589209 5.07108887 24.2069043 4.15991211 24.46240234 C2 25 2 25 0 25 C0 16.75 0 8.5 0 0 Z " fill="#DAD7DA" transform="translate(228,323)"/>
<path d="M0 0 C-1.31004301 3.55134036 -2.87107411 6.55355428 -4.9765625 9.6953125 C-5.56107178 10.5716333 -6.14558105 11.4479541 -6.74780273 12.35083008 C-11.82902136 19.85998436 -11.82902136 19.85998436 -14.31005859 23.49853516 C-15.72293591 25.58988751 -17.09981592 27.69664449 -18.45703125 29.82421875 C-23.05640423 36.76410106 -23.05640423 36.76410106 -27.75 37.9375 C-32.92049568 36.44601086 -35.30587796 32.78730061 -38.234375 28.453125 C-38.80800781 27.60878906 -39.38164062 26.76445312 -39.97265625 25.89453125 C-40.55917969 25.02183594 -41.14570313 24.14914062 -41.75 23.25 C-42.35199219 22.36183594 -42.95398438 21.47367187 -43.57421875 20.55859375 C-45.05341757 18.37501453 -46.52851715 16.18878305 -48 14 C-44.86137904 11.32254121 -42.14884183 10.29504635 -38.16015625 9.31640625 C-37.01353516 9.02830078 -35.86691406 8.74019531 -34.68554688 8.44335938 C-33.48994141 8.15267578 -32.29433594 7.86199219 -31.0625 7.5625 C-22.85975172 5.53572433 -14.77113359 3.38547379 -6.73999023 0.74975586 C-4 0 -4 0 0 0 Z " fill="#DBD8DB" transform="translate(284,475)"/>
<path d="M0 0 C0 4.29 0 8.58 0 13 C-1.45148438 13.37511719 -2.90296875 13.75023437 -4.3984375 14.13671875 C-13.76439791 16.56460555 -23.12380228 19.00279754 -32.4375 21.625 C-40.58464221 23.91833777 -48.77765127 25.99482231 -57 28 C-57 24.04 -57 20.08 -57 16 C-50.65931327 12.97147575 -44.11556052 11.3734883 -37.3125 9.6875 C-27.79667943 7.28465198 -18.36831043 4.7219952 -9.00512695 1.77807617 C-5.90009813 0.81158829 -3.27339496 0 0 0 Z " fill="#B2B0B2" transform="translate(285,365)"/>
<path d="M0 0 C0 4.29 0 8.58 0 13 C-6.35373493 15.55054918 -12.72304188 17.28055306 -19.375 18.875 C-27.69986939 20.90590782 -35.978135 23.03147324 -44.20263672 25.43896484 C-48.47691027 26.66741813 -52.59849014 27.46769777 -57 28 C-57 24.04 -57 20.08 -57 16 C-49.76466208 13.44261382 -42.41925908 11.50681744 -34.98223877 9.63916016 C-24.3973571 6.97753683 -13.88228863 4.21837553 -3.5078125 0.8125 C-1 0 -1 0 0 0 Z " fill="#B2B0B2" transform="translate(285,429)"/>
<path d="M0 0 C0 4.29 0 8.58 0 13 C-1.81242187 13.44730469 -3.62484375 13.89460938 -5.4921875 14.35546875 C-21.97447157 18.42681504 -21.97447157 18.42681504 -38.375 22.8125 C-39.07351074 23.00674561 -39.77202148 23.20099121 -40.49169922 23.40112305 C-43.42177397 24.2282716 -46.29790605 25.10702551 -49.1640625 26.13671875 C-52 27 -52 27 -57 27 C-57 23.04 -57 19.08 -57 15 C-48.61672211 12.30537496 -40.23227529 10.02265981 -31.68237305 7.93579102 C-25.21893765 6.34304867 -18.83502052 4.55217263 -12.46777344 2.61157227 C-3.86167458 0 -3.86167458 0 0 0 Z " fill="#B2B0B2" transform="translate(285,333)"/>
<path d="M0 0 C0 4.29 0 8.58 0 13 C-13.55958389 17.07424117 -27.16654345 20.90004024 -40.875 24.4375 C-41.56538361 24.61643799 -42.25576721 24.79537598 -42.96707153 24.97973633 C-54.64172616 28 -54.64172616 28 -57 28 C-57 24.04 -57 20.08 -57 16 C-50.33043654 13.33540443 -43.56737083 11.44576661 -36.625 9.625 C-34.31365503 9.01096993 -32.00245781 8.39638346 -29.69140625 7.78125 C-28.55977051 7.48089844 -27.42813477 7.18054688 -26.26220703 6.87109375 C-21.68798831 5.64965891 -17.12364743 4.39426348 -12.5625 3.125 C-11.46446045 2.82070068 -11.46446045 2.82070068 -10.34423828 2.51025391 C-1.33379362 0 -1.33379362 0 0 0 Z " fill="#B2B0B2" transform="translate(285,397)"/>
<path d="M0 0 C0 3.63 0 7.26 0 11 C-5.34783996 13.47704502 -10.58454778 15.02922233 -16.3125 16.375 C-24.71856083 18.40912881 -33.05212953 20.63499924 -41.375 22.984375 C-43.91244197 23.69529624 -46.44257901 24.37050265 -49 25 C-49.87244765 23.95245905 -50.72236674 22.88613078 -51.5625 21.8125 C-52.03816406 21.22082031 -52.51382813 20.62914062 -53.00390625 20.01953125 C-54.32547907 17.34010714 -53.80980683 15.80765363 -53 13 C-40.18451689 9.28595872 -27.33840343 5.71067 -14.44580078 2.27319336 C-13.3886084 1.99096924 -12.33141602 1.70874512 -11.2421875 1.41796875 C-9.83235596 1.04321411 -9.83235596 1.04321411 -8.39404297 0.66088867 C-2.71802309 -0.9060077 -2.71802309 -0.9060077 0 0 Z " fill="#B2B0B2" transform="translate(285,463)"/>
</svg>
